{
    "asset" : {
        "generator" : "Khronos glTF Blender I/O v1.4.40",
        "version" : "2.0"
    },
    "extensionsUsed" : [
        "KHR_materials_unlit"
    ],
    "scene" : 0,
    "scenes" : [
        {
            "name" : "Scene",
            "nodes" : [
                0,
                1
            ]
        }
    ],
    "nodes" : [
        {
            "mesh" : 0,
            "name" : "kitchen",
            "scale" : [
                0.0010000000474974513,
                0.0010000000474974513,
                0.0010000000474974513
            ],
            "translation" : [
                -0.5812902450561523,
                -1.1116167306900024,
                -1.5749067068099976
            ]
        },
        {
            "mesh" : 1,
            "name" : "walls",
            "scale" : [
                0.0010000000474974513,
                0.0010000000474974513,
                0.0010000000474974513
            ],
            "translation" : [
                -0.10514593124389648,
                -1.2097417116165161,
                0.03777182102203369
            ]
        }
    ],
    "materials" : [
        {
            "extensions" : {
                "KHR_materials_unlit" : {}
            },
            "name" : "kitchen",
            "pbrMetallicRoughness" : {
                "baseColorTexture" : {
                    "index" : 0,
                    "texCoord" : 0
                },
                "metallicFactor" : 0,
                "roughnessFactor" : 0.9
            }
        },
        {
            "extensions" : {
                "KHR_materials_unlit" : {}
            },
            "name" : "walls",
            "pbrMetallicRoughness" : {
                "baseColorTexture" : {
                    "index" : 1,
                    "texCoord" : 0
                },
                "metallicFactor" : 0,
                "roughnessFactor" : 0.9
            }
        }
    ],
    "meshes" : [
        {
            "name" : "Mesh",
            "primitives" : [
                {
                    "attributes" : {
                        "POSITION" : 0,
                        "NORMAL" : 1,
                        "TEXCOORD_0" : 2,
                        "TEXCOORD_1" : 3,
                        "TEXCOORD_2" : 4,
                        "TEXCOORD_3" : 5,
                        "TEXCOORD_4" : 6,
                        "COLOR_0" : 7
                    },
                    "indices" : 8,
                    "material" : 0
                }
            ]
        },
        {
            "name" : "Mesh.001",
            "primitives" : [
                {
                    "attributes" : {
                        "POSITION" : 9,
                        "NORMAL" : 10,
                        "TEXCOORD_0" : 11,
                        "TEXCOORD_1" : 12
                    },
                    "indices" : 13,
                    "material" : 1
                }
            ]
        }
    ],
    "textures" : [
        {
            "sampler" : 0,
            "source" : 0
        },
        {
            "sampler" : 0,
            "source" : 1
        }
    ],
    "images" : [
        {
            "mimeType" : "image/jpeg",
            "name" : "kitchenCorona_Beauty",
            "uri" : "texture/kitchenCorona_Beauty.jpg"
        },
        {
            "mimeType" : "image/jpeg",
            "name" : "wallsCorona_Beauty",
            "uri" : "texture/wallsCorona_Beauty.jpg"
        }
    ],
    "accessors" : [
        {
            "bufferView" : 0,
            "componentType" : 5126,
            "count" : 40057,
            "max" : [
                2467.499755859375,
                2642.616943359375,
                2081.24951171875
            ],
            "min" : [
                -602.5,
                -100,
                -325
            ],
            "type" : "VEC3"
        },
        {
            "bufferView" : 1,
            "componentType" : 5126,
            "count" : 40057,
            "type" : "VEC3"
        },
        {
            "bufferView" : 2,
            "componentType" : 5126,
            "count" : 40057,
            "type" : "VEC2"
        },
        {
            "bufferView" : 3,
            "componentType" : 5126,
            "count" : 40057,
            "type" : "VEC2"
        },
        {
            "bufferView" : 4,
            "componentType" : 5126,
            "count" : 40057,
            "type" : "VEC2"
        },
        {
            "bufferView" : 5,
            "componentType" : 5126,
            "count" : 40057,
            "type" : "VEC2"
        },
        {
            "bufferView" : 6,
            "componentType" : 5126,
            "count" : 40057,
            "type" : "VEC2"
        },
        {
            "bufferView" : 7,
            "componentType" : 5123,
            "count" : 40057,
            "normalized" : true,
            "type" : "VEC4"
        },
        {
            "bufferView" : 8,
            "componentType" : 5123,
            "count" : 59586,
            "type" : "SCALAR"
        },
        {
            "bufferView" : 9,
            "componentType" : 5126,
            "count" : 9016,
            "max" : [
                2008.645263671875,
                2740.741943359375,
                1949.37060546875
            ],
            "min" : [
                -2008.6455078125,
                0,
                -1949.371337890625
            ],
            "type" : "VEC3"
        },
        {
            "bufferView" : 10,
            "componentType" : 5126,
            "count" : 9016,
            "type" : "VEC3"
        },
        {
            "bufferView" : 11,
            "componentType" : 5126,
            "count" : 9016,
            "type" : "VEC2"
        },
        {
            "bufferView" : 12,
            "componentType" : 5126,
            "count" : 9016,
            "type" : "VEC2"
        },
        {
            "bufferView" : 13,
            "componentType" : 5123,
            "count" : 16236,
            "type" : "SCALAR"
        }
    ],
    "bufferViews" : [
        {
            "buffer" : 0,
            "byteLength" : 480684,
            "byteOffset" : 0
        },
        {
            "buffer" : 0,
            "byteLength" : 480684,
            "byteOffset" : 480684
        },
        {
            "buffer" : 0,
            "byteLength" : 320456,
            "byteOffset" : 961368
        },
        {
            "buffer" : 0,
            "byteLength" : 320456,
            "byteOffset" : 1281824
        },
        {
            "buffer" : 0,
            "byteLength" : 320456,
            "byteOffset" : 1602280
        },
        {
            "buffer" : 0,
            "byteLength" : 320456,
            "byteOffset" : 1922736
        },
        {
            "buffer" : 0,
            "byteLength" : 320456,
            "byteOffset" : 2243192
        },
        {
            "buffer" : 0,
            "byteLength" : 320456,
            "byteOffset" : 2563648
        },
        {
            "buffer" : 0,
            "byteLength" : 119172,
            "byteOffset" : 2884104
        },
        {
            "buffer" : 0,
            "byteLength" : 108192,
            "byteOffset" : 3003276
        },
        {
            "buffer" : 0,
            "byteLength" : 108192,
            "byteOffset" : 3111468
        },
        {
            "buffer" : 0,
            "byteLength" : 72128,
            "byteOffset" : 3219660
        },
        {
            "buffer" : 0,
            "byteLength" : 72128,
            "byteOffset" : 3291788
        },
        {
            "buffer" : 0,
            "byteLength" : 32472,
            "byteOffset" : 3363916
        }
    ],
    "samplers" : [
        {
            "magFilter" : 9729,
            "minFilter" : 9986
        }
    ],
    "buffers" : [
        {
            "byteLength" : 3396388,
            "uri" : "untitled.bin"
        }
    ]
}
