{
    "asset" : {
        "generator" : "Khronos glTF Blender I/O v1.4.40",
        "version" : "2.0"
    },
    "extensionsUsed" : [
        "KHR_texture_transform",
        "KHR_lights_punctual"
    ],
    "extensionsRequired" : [
        "KHR_texture_transform",
        "KHR_lights_punctual"
    ],
    "extensions" : {
        "KHR_lights_punctual" : {
            "lights" : [
                {
                    "color" : [
                        1,
                        0.8991456627845764,
                        0.8443690538406372
                    ],
                    "intensity" : 1.7000007629394531,
                    "spot" : {
                        "innerConeAngle" : 0.3337942263919169,
                        "outerConeAngle" : 0.39269909262657166
                    },
                    "type" : "spot",
                    "name" : "Spot.001"
                }
            ]
        }
    },
    "scene" : 0,
    "scenes" : [
        {
            "name" : "Scene",
            "nodes" : [
                0,
                1,
                3,
                5,
                7
            ]
        }
    ],
    "nodes" : [
        {
            "mesh" : 0,
            "name" : "Plane",
            "scale" : [
                1.3725086450576782,
                1.3725086450576782,
                1.3725086450576782
            ]
        },
        {
            "mesh" : 1,
            "name" : "Cube",
            "translation" : [
                0,
                0.08999999612569809,
                0
            ]
        },
        {
            "extensions" : {
                "KHR_lights_punctual" : {
                    "light" : 0
                }
            },
            "name" : "Spot_Orientation",
            "rotation" : [
                -0.7071067690849304,
                0,
                0,
                0.7071067690849304
            ]
        },
        {
            "children" : [
                2
            ],
            "name" : "Spot",
            "rotation" : [
                0.24621832370758057,
                0,
                0.33361658453941345,
                0.9099870920181274
            ],
            "translation" : [
                -0.49152761697769165,
                0.5604663491249084,
                0.3978237509727478
            ]
        },
        {
            "name" : "Camera.001",
            "rotation" : [
                0.537299633026123,
                0,
                0,
                0.8433914184570312
            ],
            "scale" : [
                0.3154940605163574,
                0.3154940903186798,
                0.3154940903186798
            ],
            "translation" : [
                0,
                0.11066175997257233,
                0.21051999926567078
            ]
        },
        {
            "children" : [
                4
            ],
            "mesh" : 2,
            "name" : "Camera",
            "translation" : [
                0,
                0.051253143697977066,
                0
            ]
        },
        {
            "mesh" : 3,
            "name" : "Es"
        },
        {
            "children" : [
                6
            ],
            "mesh" : 4,
            "name" : "Donat",
            "translation" : [
                0,
                0.024354634806513786,
                0
            ]
        }
    ],
    "animations" : [
        {
            "channels" : [
                {
                    "sampler" : 0,
                    "target" : {
                        "node" : 1,
                        "path" : "rotation"
                    }
                },
                {
                    "sampler" : 1,
                    "target" : {
                        "node" : 1,
                        "path" : "translation"
                    }
                }
            ],
            "name" : "CubeAction",
            "samplers" : [
                {
                    "input" : 20,
                    "interpolation" : "LINEAR",
                    "output" : 21
                },
                {
                    "input" : 20,
                    "interpolation" : "LINEAR",
                    "output" : 22
                }
            ]
        },
        {
            "channels" : [
                {
                    "sampler" : 0,
                    "target" : {
                        "node" : 5,
                        "path" : "rotation"
                    }
                }
            ],
            "name" : "CameraAction",
            "samplers" : [
                {
                    "input" : 23,
                    "interpolation" : "LINEAR",
                    "output" : 24
                }
            ]
        },
        {
            "channels" : [
                {
                    "sampler" : 0,
                    "target" : {
                        "node" : 7,
                        "path" : "rotation"
                    }
                }
            ],
            "name" : "DonatAction",
            "samplers" : [
                {
                    "input" : 20,
                    "interpolation" : "LINEAR",
                    "output" : 25
                }
            ]
        }
    ],
    "materials" : [
        {
            "doubleSided" : true,
            "name" : "Material",
            "normalTexture" : {
                "extensions" : {
                    "KHR_texture_transform" : {
                        "offset" : [
                            0,
                            -0.5
                        ],
                        "scale" : [
                            1.5,
                            1.5
                        ]
                    }
                },
                "index" : 0,
                "scale" : 5.699999809265137,
                "texCoord" : 0
            },
            "pbrMetallicRoughness" : {
                "baseColorTexture" : {
                    "extensions" : {
                        "KHR_texture_transform" : {
                            "offset" : [
                                0,
                                -0.5
                            ],
                            "scale" : [
                                1.5,
                                1.5
                            ]
                        }
                    },
                    "index" : 1,
                    "texCoord" : 0
                },
                "metallicRoughnessTexture" : {
                    "extensions" : {
                        "KHR_texture_transform" : {
                            "offset" : [
                                0,
                                -0.5
                            ],
                            "scale" : [
                                1.5,
                                1.5
                            ]
                        }
                    },
                    "index" : 2,
                    "texCoord" : 0
                }
            }
        },
        {
            "doubleSided" : true,
            "name" : "Material.002",
            "pbrMetallicRoughness" : {
                "baseColorFactor" : [
                    0.19598853588104248,
                    0.04691792652010918,
                    0.014876605942845345,
                    1
                ],
                "metallicFactor" : 0,
                "roughnessFactor" : 0.4000000059604645
            }
        },
        {
            "doubleSided" : true,
            "name" : "Material.003",
            "pbrMetallicRoughness" : {
                "baseColorTexture" : {
                    "index" : 3,
                    "texCoord" : 0
                },
                "metallicFactor" : 0,
                "roughnessFactor" : 0.5555626153945923
            }
        }
    ],
    "meshes" : [
        {
            "name" : "Plane",
            "primitives" : [
                {
                    "attributes" : {
                        "POSITION" : 0,
                        "NORMAL" : 1,
                        "TEXCOORD_0" : 2
                    },
                    "indices" : 3
                }
            ]
        },
        {
            "name" : "Cube",
            "primitives" : [
                {
                    "attributes" : {
                        "POSITION" : 4,
                        "NORMAL" : 5,
                        "TEXCOORD_0" : 6
                    },
                    "indices" : 7,
                    "material" : 0
                }
            ]
        },
        {
            "name" : "Cube.001",
            "primitives" : [
                {
                    "attributes" : {
                        "POSITION" : 8,
                        "NORMAL" : 9,
                        "TEXCOORD_0" : 10
                    },
                    "indices" : 11
                }
            ]
        },
        {
            "name" : "Torus.001",
            "primitives" : [
                {
                    "attributes" : {
                        "POSITION" : 12,
                        "NORMAL" : 13,
                        "TEXCOORD_0" : 14
                    },
                    "indices" : 15,
                    "material" : 1
                }
            ]
        },
        {
            "name" : "Torus",
            "primitives" : [
                {
                    "attributes" : {
                        "POSITION" : 16,
                        "NORMAL" : 17,
                        "TEXCOORD_0" : 18
                    },
                    "indices" : 19,
                    "material" : 2
                }
            ]
        }
    ],
    "textures" : [
        {
            "sampler" : 0,
            "source" : 0
        },
        {
            "sampler" : 0,
            "source" : 1
        },
        {
            "sampler" : 0,
            "source" : 2
        },
        {
            "sampler" : 0,
            "source" : 3
        }
    ],
    "images" : [
        {
            "mimeType" : "image/jpeg",
            "name" : "metal_plate_Nor_4k",
            "uri" : "texture/metal_plate_Nor_4k.jpg"
        },
        {
            "mimeType" : "image/jpeg",
            "name" : "metal_plate_diff_4k",
            "uri" : "texture/metal_plate_diff_4k.jpg"
        },
        {
            "mimeType" : "image/png",
            "name" : "metal_plate_rough_4k",
            "uri" : "texture/metal_plate_rough_4k.png"
        },
        {
            "mimeType" : "image/png",
            "name" : "Tekstur_donat",
            "uri" : "texture/Tekstur_donat.png"
        }
    ],
    "accessors" : [
        {
            "bufferView" : 0,
            "componentType" : 5126,
            "count" : 4,
            "max" : [
                0.1600000262260437,
                0,
                0.1600000262260437
            ],
            "min" : [
                -0.1600000262260437,
                0,
                -0.1600000262260437
            ],
            "type" : "VEC3"
        },
        {
            "bufferView" : 1,
            "componentType" : 5126,
            "count" : 4,
            "type" : "VEC3"
        },
        {
            "bufferView" : 2,
            "componentType" : 5126,
            "count" : 4,
            "type" : "VEC2"
        },
        {
            "bufferView" : 3,
            "componentType" : 5123,
            "count" : 6,
            "type" : "SCALAR"
        },
        {
            "bufferView" : 4,
            "componentType" : 5126,
            "count" : 24,
            "max" : [
                0.04890938103199005,
                0.05196100473403931,
                0.04242643713951111
            ],
            "min" : [
                -0.04890938103199005,
                -0.05196100473403931,
                -0.04242643713951111
            ],
            "type" : "VEC3"
        },
        {
            "bufferView" : 5,
            "componentType" : 5126,
            "count" : 24,
            "type" : "VEC3"
        },
        {
            "bufferView" : 6,
            "componentType" : 5126,
            "count" : 24,
            "type" : "VEC2"
        },
        {
            "bufferView" : 7,
            "componentType" : 5123,
            "count" : 36,
            "type" : "SCALAR"
        },
        {
            "bufferView" : 8,
            "componentType" : 5126,
            "count" : 24,
            "max" : [
                0.0005000000237487257,
                0.21377593278884888,
                0.0005000000237487257
            ],
            "min" : [
                -0.0005000000237487257,
                0.21277594566345215,
                -0.0005000000237487257
            ],
            "type" : "VEC3"
        },
        {
            "bufferView" : 9,
            "componentType" : 5126,
            "count" : 24,
            "type" : "VEC3"
        },
        {
            "bufferView" : 10,
            "componentType" : 5126,
            "count" : 24,
            "type" : "VEC2"
        },
        {
            "bufferView" : 11,
            "componentType" : 5123,
            "count" : 36,
            "type" : "SCALAR"
        },
        {
            "bufferView" : 12,
            "componentType" : 5126,
            "count" : 38603,
            "max" : [
                0.07282775640487671,
                0.03011779673397541,
                0.0753026232123375
            ],
            "min" : [
                -0.07321884483098984,
                -0.004382221959531307,
                -0.07597770541906357
            ],
            "type" : "VEC3"
        },
        {
            "bufferView" : 13,
            "componentType" : 5126,
            "count" : 38603,
            "type" : "VEC3"
        },
        {
            "bufferView" : 14,
            "componentType" : 5126,
            "count" : 38603,
            "type" : "VEC2"
        },
        {
            "bufferView" : 15,
            "componentType" : 5123,
            "count" : 226752,
            "type" : "SCALAR"
        },
        {
            "bufferView" : 16,
            "componentType" : 5126,
            "count" : 92833,
            "max" : [
                0.07161139696836472,
                0.025400297716259956,
                0.07176977396011353
            ],
            "min" : [
                -0.07249286025762558,
                -0.0247866939753294,
                -0.07363831251859665
            ],
            "type" : "VEC3"
        },
        {
            "bufferView" : 17,
            "componentType" : 5126,
            "count" : 92833,
            "type" : "VEC3"
        },
        {
            "bufferView" : 18,
            "componentType" : 5126,
            "count" : 92833,
            "type" : "VEC2"
        },
        {
            "bufferView" : 19,
            "componentType" : 5125,
            "count" : 552960,
            "type" : "SCALAR"
        },
        {
            "bufferView" : 20,
            "componentType" : 5126,
            "count" : 241,
            "max" : [
                10
            ],
            "min" : [
                0
            ],
            "type" : "SCALAR"
        },
        {
            "bufferView" : 21,
            "componentType" : 5126,
            "count" : 241,
            "type" : "VEC4"
        },
        {
            "bufferView" : 22,
            "componentType" : 5126,
            "count" : 241,
            "type" : "VEC3"
        },
        {
            "bufferView" : 23,
            "componentType" : 5126,
            "count" : 240,
            "max" : [
                9.958333333333334
            ],
            "min" : [
                0
            ],
            "type" : "SCALAR"
        },
        {
            "bufferView" : 24,
            "componentType" : 5126,
            "count" : 240,
            "type" : "VEC4"
        },
        {
            "bufferView" : 25,
            "componentType" : 5126,
            "count" : 241,
            "type" : "VEC4"
        }
    ],
    "bufferViews" : [
        {
            "buffer" : 0,
            "byteLength" : 48,
            "byteOffset" : 0
        },
        {
            "buffer" : 0,
            "byteLength" : 48,
            "byteOffset" : 48
        },
        {
            "buffer" : 0,
            "byteLength" : 32,
            "byteOffset" : 96
        },
        {
            "buffer" : 0,
            "byteLength" : 12,
            "byteOffset" : 128
        },
        {
            "buffer" : 0,
            "byteLength" : 288,
            "byteOffset" : 140
        },
        {
            "buffer" : 0,
            "byteLength" : 288,
            "byteOffset" : 428
        },
        {
            "buffer" : 0,
            "byteLength" : 192,
            "byteOffset" : 716
        },
        {
            "buffer" : 0,
            "byteLength" : 72,
            "byteOffset" : 908
        },
        {
            "buffer" : 0,
            "byteLength" : 288,
            "byteOffset" : 980
        },
        {
            "buffer" : 0,
            "byteLength" : 288,
            "byteOffset" : 1268
        },
        {
            "buffer" : 0,
            "byteLength" : 192,
            "byteOffset" : 1556
        },
        {
            "buffer" : 0,
            "byteLength" : 72,
            "byteOffset" : 1748
        },
        {
            "buffer" : 0,
            "byteLength" : 463236,
            "byteOffset" : 1820
        },
        {
            "buffer" : 0,
            "byteLength" : 463236,
            "byteOffset" : 465056
        },
        {
            "buffer" : 0,
            "byteLength" : 308824,
            "byteOffset" : 928292
        },
        {
            "buffer" : 0,
            "byteLength" : 453504,
            "byteOffset" : 1237116
        },
        {
            "buffer" : 0,
            "byteLength" : 1113996,
            "byteOffset" : 1690620
        },
        {
            "buffer" : 0,
            "byteLength" : 1113996,
            "byteOffset" : 2804616
        },
        {
            "buffer" : 0,
            "byteLength" : 742664,
            "byteOffset" : 3918612
        },
        {
            "buffer" : 0,
            "byteLength" : 2211840,
            "byteOffset" : 4661276
        },
        {
            "buffer" : 0,
            "byteLength" : 964,
            "byteOffset" : 6873116
        },
        {
            "buffer" : 0,
            "byteLength" : 3856,
            "byteOffset" : 6874080
        },
        {
            "buffer" : 0,
            "byteLength" : 2892,
            "byteOffset" : 6877936
        },
        {
            "buffer" : 0,
            "byteLength" : 960,
            "byteOffset" : 6880828
        },
        {
            "buffer" : 0,
            "byteLength" : 3840,
            "byteOffset" : 6881788
        },
        {
            "buffer" : 0,
            "byteLength" : 3856,
            "byteOffset" : 6885628
        }
    ],
    "samplers" : [
        {
            "magFilter" : 9729,
            "minFilter" : 9986
        }
    ],
    "buffers" : [
        {
            "byteLength" : 6889484,
            "uri" : "Donut.bin"
        }
    ]
}
